:SAMPLES-PER-SECOND 30
:FULLY-SPECIFIED
:DEGREES
255
root  4.87 27.8819 48.3506 -160.261 35.2649 -171.179
RightUpLeg  -43.111 -15.2822 -19.7042
RightLeg  55.9111 4.76405 6.05216
RightFoot  1.56369 -0.01845 1.72869
RightToes  -42.587 -0.239472 -0.329265
Spine  16.87 2.29447 0.0792774
Spine1  28.5864 5.19235 -1.21426
HEad  7.04421 -1.49364 12.1175
LeftShoulder1  0 -2.42657e-020 -4.95415e-022
LeftArm  -25.9834 -33.224 -76.994
LeftForeArm  32.8025 -63.0196 -20.3607
LeftHand  0.830855 -5.67997 -17.0215
RightShoulder  0 2.42657e-020 1.07489e-018
RightArm  -30.8599 24.421 86.6659
RightForeArm  23.7313 31.5884 6.22267
RightHand  -0.66041 21.8389 -3.05308
LeftUpLeg  -46.7619 11.3776 20.2689
LeftLeg  68.2378 -1.8769 -3.95262
LeftFoot  -19.0196 0.0287011 0.171322
LeftToes  -37.4903 8.63562e-007 1.17448e-007
256
root  6.15834 26.5627 49.1314 -160.36 34.6583 -171.407
RightUpLeg  -42.5566 -10.1354 -25.4644
RightLeg  52.4287 0.807021 0.865668
RightFoot  4.76897 -0.059942 1.8167
RightToes  -31.3238 -0.153142 -0.26106
Spine  17.9601 1.16914 0.71306
Spine1  29.7848 2.15527 0.226629
HEad  5.54032 0.203431 10.6357
LeftShoulder1  0 -2.42657e-020 -4.95415e-022
LeftArm  -21.7142 -38.5918 -81.3138
LeftForeArm  36.9599 -57.7274 -16.2669
LeftHand  0.666443 -6.87383 -11.4438
RightShoulder  0 2.42657e-020 1.07489e-018
RightArm  -31.3933 28.8288 86.4344
RightForeArm  21.3188 30.1475 5.87514
RightHand  -0.22507 21.5386 -0.813487
LeftUpLeg  -48.7658 11.5521 24.0364
LeftLeg  72.574 -2.03467 -5.27284
LeftFoot  -20.621 0.0100555 0.0552653
LeftToes  -41.7567 8.63562e-007 1.17448e-007
257
root  7.60846 25.2789 50.0657 -160.713 34.2028 -173.054
RightUpLeg  -43.4191 -4.26316 -31.6373
RightLeg  51.857 2.25733 2.46807
RightFoot  4.53461 -0.0757095 2.28923
RightToes  -52.4921 -0.325149 -0.374296
Spine  19.4643 0.0451277 0.809787
Spine1  31.3959 -1.0211 1.46357
HEad  2.61073 0.994763 9.68428
LeftShoulder1  0 -2.42657e-020 -4.95415e-022
LeftArm  -17.0091 -44.1481 -86.1842
LeftForeArm  41.603 -49.8087 -12.0591
LeftHand  0.296799 -9.21032 -4.05644
RightShoulder  0 2.42657e-020 1.07489e-018
RightArm  -32.8823 34.2714 87.1483
RightForeArm  18.3581 28.2983 5.4437
RightHand  0.238938 21.3323 1.6391
LeftUpLeg  -50.6928 13.5464 26.6971
LeftLeg  75.2164 -2.68508 -8.00649
LeftFoot  -20.7984 0.0277709 0.151314
LeftToes  -46.4055 8.63562e-007 1.17448e-007
258
root  9.16478 24.0335 51.0872 -161.227 33.3313 -175.244
RightUpLeg  -45.5471 -1.49256 -35.623
RightLeg  57.04 5.385 7.12155
RightFoot  -4.23964 0.051415 1.76681
RightToes  -67.1263 -0.462775 -0.412351
Spine  21.0783 -1.10927 1.02751
Spine1  33.1543 -4.09378 3.06576
HEad  -0.100738 0.683133 8.44695
LeftShoulder1  0 -2.42657e-020 -4.95415e-022
LeftArm  -11.3384 -49.957 -93.1038
LeftForeArm  47.8583 -39.3849 -8.30217
LeftHand  -0.260801 -11.8012 2.15435
RightShoulder  0 2.42657e-020 1.07489e-018
RightArm  -35.8522 40.3813 88.3457
RightForeArm  16.4361 25.3555 4.78807
RightHand  0.620253 20.8221 3.74603
LeftUpLeg  -52.2022 15.1132 29.107
LeftLeg  76.1768 -3.33692 -10.4781
LeftFoot  -20.276 0.00107973 0.00602927
LeftToes  -50.3967 8.63562e-007 1.17448e-007
259
root  10.6423 23.0586 52.3314 -160.235 31.5672 -177.713
RightUpLeg  -50.4573 -7.57358 -34.9628
RightLeg  65.033 6.00255 10.7236
RightFoot  -14.5652 -0.0791272 -0.241635
RightToes  -68.4545 -0.47566 -0.414041
Spine  21.6279 -2.14566 1.89553
Spine1  33.1276 -6.51137 5.07402
HEad  -1.73372 -0.203374 7.14647
LeftShoulder1  0 -2.42657e-020 -4.95415e-022
LeftArm  -5.12056 -54.7688 -102.997
LeftForeArm  54.7458 -27.4233 -5.20742
LeftHand  -0.176817 -11.9687 1.31741
RightShoulder  0 2.42657e-020 1.07489e-018
RightArm  -41.4399 45.4678 88.0706
RightForeArm  15.0775 21.2114 3.91861
RightHand  1.02829 20.6449 6.01319
LeftUpLeg  -55.3105 15.3965 30.905
LeftLeg  75.124 -3.87442 -11.4001
LeftFoot  -18.0392 -0.133048 -0.838171
LeftToes  -53.2778 8.63562e-007 1.17448e-007
260
root  12.0666 22.4972 53.5991 -158.801 30.7223 -179.905
RightUpLeg  -56.3734 -10.905 -33.6529
RightLeg  72.3394 4.71073 11.6829
RightFoot  -21.2044 -0.321808 -1.34157
RightToes  -65.83 -0.450242 -0.410413
Spine  22.1026 -2.47962 2.99192
Spine1  33.1882 -7.16797 6.74625
HEad  -3.94239 -0.945611 5.78643
LeftShoulder1  0 -2.42657e-020 -4.95415e-022
LeftArm  1.45556 -58.2867 -113.289
LeftForeArm  57.5453 -18.07 -3.25265
LeftHand  0.184183 -11.8707 -2.14266
RightShoulder  0 2.42657e-020 1.07489e-018
RightArm  -50.3215 50.6065 85.0596
RightForeArm  17.118 16.2385 2.94057
RightHand  1.25635 20.4384 7.33304
LeftUpLeg  -56.7679 14.9173 32.5549
LeftLeg  71.6529 -4.16653 -10.1969
LeftFoot  -14.7804 -0.29413 -2.26742
LeftToes  -55.4444 8.63562e-007 1.17448e-007
261
root  13.3571 22.4058 54.7308 -156.781 30.6393 179.086
RightUpLeg  -62.6852 -11.1551 -31.654
RightLeg  78.3842 3.30652 11.6003
RightFoot  -23.653 -0.379004 -1.43236
RightToes  -64.0781 -0.433379 -0.407345
Spine  22.4973 -2.29924 4.60816
Spine1  33.3428 -6.67982 8.62045
HEad  -6.38396 -1.54678 3.50922
LeftShoulder1  0 -2.42657e-020 -4.95415e-022
LeftArm  8.59467 -60.2544 -122.126
LeftForeArm  61.8046 -11.1765 -1.94679
LeftHand  0.937136 -12.9266 -8.6326
RightShoulder  0 2.42657e-020 1.07489e-018
RightArm  -62.7831 55.3747 77.7688
RightForeArm  23.3234 10.865 1.93956
RightHand  0.935956 20.647 5.50662
LeftUpLeg  -56.4156 14.2192 34.462
LeftLeg  66.4793 -3.76359 -7.29112
LeftFoot  -11.241 -0.365033 -3.70797
LeftToes  -54.3413 8.63562e-007 1.17448e-007
262
root  14.4231 22.7469 55.6096 -155.294 30.6594 177.519
RightUpLeg  -66.6218 -12.2055 -29.8163
RightLeg  80.6958 2.84699 11.7721
RightFoot  -24.8564 -0.464262 -1.72892
RightToes  -61.7708 -0.411328 -0.401382
Spine  22.3343 -2.16269 6.04614
Spine1  32.9857 -6.045 9.99355
HEad  -7.96974 -2.21105 0.796655
LeftShoulder1  0 -2.42657e-020 -4.95415e-022
LeftArm  14.8675 -59.4834 -127.336
LeftForeArm  66.7314 -6.51328 -1.09701
LeftHand  0.8888 -11.835 -8.93445
RightShoulder  0 2.42657e-020 1.07489e-018
RightArm  -73.39 57.1147 67.9166
RightForeArm  27.5287 7.29933 1.29601
RightHand  0.181476 19.5726 1.42258
LeftUpLeg  -55.7659 11.6651 35.2017
LeftLeg  61.2776 -1.55122 -2.45318
LeftFoot  -7.68894 -0.322897 -4.80225
LeftToes  -46.67 8.63562e-007 1.17448e-007
263
root  15.3906 23.3385 56.16 -154.743 31.188 176.117
RightUpLeg  -68.6155 -12.1093 -28.2062
RightLeg  81.2248 2.77023 11.9376
RightFoot  -25.3197 -0.571726 -2.16738
RightToes  -59.2006 -0.387016 -0.396106
Spine  22.1482 -2.07328 6.99481
Spine1  32.5657 -6.00622 11.5353
HEad  -8.46385 -2.91431 -1.29649
LeftShoulder1  0 -2.42657e-020 -4.95415e-022
LeftArm  14.8598 -57.3632 -127.59
LeftForeArm  66.4375 -5.6648 -0.947382
LeftHand  0.745004 -10.5661 -8.41909
RightShoulder  0 2.42657e-020 1.07489e-018
RightArm  -81.098 56.283 60.7126
RightForeArm  28.4873 7.58333 1.34625
RightHand  -0.473309 18.975 -2.46243
LeftUpLeg  -54.7375 9.84611 34.0968
LeftLeg  58.6696 3.33417 4.73599
LeftFoot  -1.56707 -0.072859 -5.32363
LeftToes  -39.7124 8.63562e-007 1.17448e-007
264
root  16.2526 24.0695 56.4388 -154.923 32.0379 174.909
RightUpLeg  -68.822 -10.9719 -27.139
RightLeg  80.3127 2.86251 11.4976
RightFoot  -25.2356 -0.620061 -2.39196
RightToes  -59.0845 -0.385924 -0.395791
Spine  21.9292 -2.14582 7.46225
Spine1  32.2799 -6.35614 12.4359
HEad  -8.08046 -2.01371 -3.64139
LeftShoulder1  0 -2.42657e-020 -4.95415e-022
LeftArm  10.7337 -55.2886 -124.026
LeftForeArm  63.3936 -6.6825 -1.13501
LeftHand  0.751753 -10.8778 -8.25827
RightShoulder  0 2.42657e-020 1.07489e-018
RightArm  -85.4945 54.4892 56.6707
RightForeArm  26.6974 10.4639 1.86564
RightHand  -0.394355 21.0074 -1.75726
LeftUpLeg  -53.4831 8.68364 31.5855
LeftLeg  59.4434 5.89666 8.57394
LeftFoot  0.55717 0.0239429 -4.92125
LeftToes  -30.2049 8.63562e-007 1.17448e-007
265
root  17.0316 24.8735 56.4815 -155.559 33.1878 174.18
RightUpLeg  -67.5903 -9.0708 -26.2744
RightLeg  78.2906 3.04843 10.6264
RightFoot  -24.8444 -0.623634 -2.4532
RightToes  -56.0432 -0.35758 -0.386744
Spine  21.4687 -2.45452 7.55982
Spine1  31.6294 -7.38712 13.0451
HEad  -7.27965 0.0906083 -6.50743
LeftShoulder1  0 -2.42657e-020 -4.95415e-022
LeftArm  5.32397 -53.1906 -118.111
LeftForeArm  60.5169 -7.69939 -1.32257
LeftHand  0.710817 -10.9826 -7.75851
RightShoulder  0 2.42657e-020 1.07489e-018
RightArm  -81.66 50.853 56.8835
RightForeArm  19.9565 16.5537 3.00128
RightHand  -0.297605 21.1287 -1.22598
LeftUpLeg  -51.5586 7.64751 28.6883
LeftLeg  61.7727 6.11187 9.69221
LeftFoot  3.15531 0.114727 -4.16365
LeftToes  -35.8427 8.63562e-007 1.17448e-007
266
root  17.791 25.773 56.3567 -155.888 34.7196 174.428
RightUpLeg  -65.466 -6.47057 -24.9445
RightLeg  75.0341 3.44233 9.85375
RightFoot  -24.0388 -0.62093 -2.53832
RightToes  -55.4427 -0.352043 -0.384781
Spine  20.9597 -2.93997 7.4077
Spine1  30.873 -8.95096 13.5663
HEad  -7.2374 3.04919 -9.54134
LeftShoulder1  0 -2.42657e-020 -4.95415e-022
LeftArm  -1.67876 -51.3015 -110.964
LeftForeArm  60.4131 -8.2631 -1.42358
LeftHand  0.603249 -10.5399 -6.90751
RightShoulder  0 2.42657e-020 1.07489e-018
RightArm  -74.8602 46.2067 60.0338
RightForeArm  18.2051 25.978 4.92424
RightHand  -0.223172 23.0713 -0.723592
LeftUpLeg  -49.2159 7.00899 26.2131
LeftLeg  64.3988 5.50281 9.69155
LeftFoot  6.20942 0.178536 -3.29066
LeftToes  -39.1492 8.63562e-007 1.17448e-007
267
root  18.4828 26.6847 56.0956 -156.034 35.6619 174.713
RightUpLeg  -62.6093 -4.71137 -23.6408
RightLeg  71.1557 3.90933 9.15882
RightFoot  -23.0597 -0.597263 -2.54975
RightToes  -54.6516 -0.34478 -0.383666
Spine  20.2414 -3.91829 6.82213
Spine1  30.0035 -11.2685 13.2112
HEad  -7.95742 7.09037 -12.3965
LeftShoulder1  0 -2.42657e-020 -4.95415e-022
LeftArm  -10.4099 -48.9852 -102.943
LeftForeArm  59.7318 -8.58906 -1.48348
LeftHand  0.461243 -9.85802 -5.71844
RightShoulder  0 2.42657e-020 1.07489e-018
RightArm  -63.6164 41.8116 63.2886
RightForeArm  19.1149 35.3978 7.19873
RightHand  -0.467547 22.762 -1.95297
LeftUpLeg  -47.7895 6.17289 23.6042
LeftLeg  66.9722 4.90383 9.62857
LeftFoot  8.4732 0.180236 -2.43271
LeftToes  -38.7202 8.63562e-007 1.17448e-007
268
root  19.0441 27.5473 55.8359 -155.194 36.9078 175.442
RightUpLeg  -60.3937 -3.2981 -22.24
RightLeg  66.6298 4.53594 8.67423
RightFoot  -21.7786 -0.564812 -2.5579
RightToes  -53.7631 -0.336668 -0.382545
Spine  19.2231 -4.87308 5.71826
Spine1  28.7888 -13.4127 11.955
HEad  -8.34697 11.64 -14.7013
LeftShoulder1  0 -2.42657e-020 -4.95415e-022
LeftArm  -17.6689 -45.5616 -94.3911
LeftForeArm  55.8993 -9.43822 -1.64412
LeftHand  0.368349 -8.84545 -5.13366
RightShoulder  0 2.42657e-020 1.07489e-018
RightArm  -52.434 37.4776 68.4391
RightForeArm  25.2961 46.0286 10.5501
RightHand  -1.31187 23.5007 -5.93236
LeftUpLeg  -47.6521 6.5432 20.8615
LeftLeg  69.295 4.39019 9.5691
LeftFoot  10.6254 0.144234 -1.55097
LeftToes  -37.6154 8.63562e-007 1.17448e-007
